<?xml version="1.0" encoding="UTF-8"?>
<svg width="643px" height="158px" viewBox="0 0 643 158" version="1.1" xmlns="http://www.w3.org/2000/svg" xmlns:xlink="http://www.w3.org/1999/xlink">
    <title>Group 2</title>
    <defs>
        <rect id="path-1" x="0" y="0" width="158" height="158" rx="52"></rect>
    </defs>
    <g id="Page-1" stroke="none" stroke-width="1" fill="none" fill-rule="evenodd">
        <g id="handpick" transform="translate(-34.000000, -30.000000)">
            <g id="Group-2" transform="translate(34.000000, 30.000000)">
                <path d="M217.86,108 L217.86,87.12 L237.78,87.12 L237.78,108 L254.42,108 L254.42,51.92 L237.78,51.92 L237.78,74.24 L217.86,74.24 L217.86,51.92 L201.22,51.92 L201.22,108 L217.86,108 Z M275.62,108 L278.98,99.04 L301.62,99.04 L304.9,108 L322.66,108 L299.54,51.92 L282.42,51.92 L258.5,108 L275.62,108 Z M297.22,86.88 L283.62,86.88 L290.5,68.56 L297.22,86.88 Z M342.02,108 L342.02,76.8 L365.78,108 L379.94,108 L379.94,51.92 L364.74,51.92 L364.74,83.2 L340.98,51.92 L326.74,51.92 L326.74,108 L342.02,108 Z M413.38,108 C419.46,108 424.82,106.84 429.46,104.52 C434.1,102.2 437.7,98.9066667 440.26,94.64 C442.82,90.3733333 444.1,85.4666667 444.1,79.92 C444.1,74.3733333 442.846667,69.48 440.34,65.24 C437.833333,61 434.3,57.72 429.74,55.4 C425.18,53.08 419.913333,51.92 413.94,51.92 L413.94,51.92 L389.38,51.92 L389.38,108 L413.38,108 Z M414.42,94.96 L406.02,94.96 L406.02,65.04 L413.62,65.04 C417.62,65.04 420.873333,66.4266667 423.38,69.2 C425.886667,71.9733333 427.14,75.6 427.14,80.08 C427.14,84.56 425.966667,88.16 423.62,90.88 C421.273333,93.6 418.206667,94.96 414.42,94.96 L414.42,94.96 Z M466.98,108 L466.98,92.96 L475.78,92.88 C483.033333,92.88 488.646667,91.04 492.62,87.36 C496.593333,83.68 498.58,78.5066667 498.58,71.84 C498.58,65.4933333 496.593333,60.5866667 492.62,57.12 C488.646667,53.6533333 483.033333,51.92 475.78,51.92 L475.78,51.92 L450.34,51.92 L450.34,108 L466.98,108 Z M474.98,80.08 L466.98,80.08 L466.98,64.72 L474.98,64.72 C477.486667,64.72 479.42,65.3733333 480.78,66.68 C482.14,67.9866667 482.82,69.8666667 482.82,72.32 C482.82,74.8266667 482.14,76.7466667 480.78,78.08 C479.42,79.4133333 477.486667,80.08 474.98,80.08 L474.98,80.08 Z M521.62,108 L521.62,51.92 L504.98,51.92 L504.98,108 L521.62,108 Z M557.46,109.12 C561.673333,109.12 565.926667,108.133333 570.22,106.16 C574.513333,104.186667 578.18,101.546667 581.22,98.24 L581.22,98.24 L571.62,88 C569.7,90.0266667 567.526667,91.6266667 565.1,92.8 C562.673333,93.9733333 560.393333,94.56 558.26,94.56 C555.753333,94.56 553.486667,93.9066667 551.46,92.6 C549.433333,91.2933333 547.833333,89.5066667 546.66,87.24 C545.486667,84.9733333 544.9,82.4266667 544.9,79.6 C544.9,76.7733333 545.486667,74.2266667 546.66,71.96 C547.833333,69.6933333 549.433333,67.92 551.46,66.64 C553.486667,65.36 555.753333,64.72 558.26,64.72 C560.553333,64.72 562.913333,65.4 565.34,66.76 C567.766667,68.12 569.86,69.9733333 571.62,72.32 L571.62,72.32 L581.22,60.88 C578.393333,57.84 574.873333,55.4133333 570.66,53.6 C566.446667,51.7866667 562.233333,50.88 558.02,50.88 C552.313333,50.88 547.166667,52.1333333 542.58,54.64 C537.993333,57.1466667 534.393333,60.6 531.78,65 C529.166667,69.4 527.86,74.32 527.86,79.76 C527.86,85.3066667 529.14,90.32 531.7,94.8 C534.26,99.28 537.793333,102.786667 542.3,105.32 C546.806667,107.853333 551.86,109.12 557.46,109.12 Z M602.9,108 L602.9,94.24 L609.14,87.36 L622.26,108 L642.18,108 L620.5,74.64 L640.9,51.92 L621.7,51.92 L602.9,74.4 L602.9,51.92 L586.26,51.92 L586.26,108 L602.9,108 Z" id="HANDPICK" fill="#5267FF" fill-rule="nonzero"></path>
                <g id="Group">
                    <mask id="mask-2" fill="white">
                        <use xlink:href="#path-1"></use>
                    </mask>
                    <use id="Rectangle" fill="#5267FF" xlink:href="#path-1"></use>
                    <g id="hello" mask="url(#mask-2)" fill="#FFFFFF" fill-rule="nonzero">
                        <g transform="translate(38.000000, 38.000000)" id="Shape">
                            <path d="M76.4357816,45.1808383 C72.8122655,45.1808383 69.4045753,46.5949483 66.834897,49.164056 C63.6363636,51.5869565 61.3636364,55.6956522 58.1818182,54.326087 C55,52.9565217 55.6509277,45.8893107 55.7158441,45.6427306 L64.8210034,11.4449769 C65.5207518,8.81490158 63.9661301,6.10014899 61.3526122,5.39563428 C58.7288088,4.68942603 56.0464963,6.25764867 55.3465793,8.88772402 C55.343207,8.90465947 55.5425088,8.1981125 45.809768,42.3724952 C45.3814883,43.8745003 43.1642134,43.5630573 43.1642134,41.9999153 L43.1642134,4.93837714 C43.1642134,2.21515682 40.9637999,0 38.2592303,0 C35.5546608,0 33.3542473,2.21515682 33.3542473,4.93837714 L33.3542473,40.9160465 C33.3542473,42.4954466 31.1059474,42.7867363 30.7036342,41.2649168 L22.5089908,10.488124 C22.1683904,9.21288465 21.3556706,8.14595132 20.2192119,7.48716232 C16.4597928,5.30723124 11.9048525,8.79915161 13.0345667,13.0453769 L21.4382915,44.6096681 C21.8456631,46.1362296 19.7462494,46.9989214 18.9664094,45.6359564 L7.85980117,26.2753503 C7.07726331,24.912724 5.66613223,24.1550319 4.2076206,24.1550319 C1.00209867,24.1550319 -1.05684763,27.6831942 0.568929151,30.5176804 C7.46237032,47.6073427 11.6743496,58.1943133 13.2048669,62.2785922 C17.405314,73.4877415 22.8866863,84 34.7857806,84 L39.7109974,84 C46.025594,84 51.9641812,81.5257308 56.4324539,77.0344495 L78.8655103,51.3997048 C79.3411705,51.0222136 79.9436286,49.9989737 79.9952245,48.9576129 C80.0995966,46.8997864 78.4798899,45.1808383 76.4357816,45.1808383 Z"></path>
                        </g>
                    </g>
                </g>
            </g>
        </g>
    </g>
</svg>