<?xml version="1.0" encoding="UTF-8"?>
<svg width="614px" height="158px" viewBox="0 0 614 158" version="1.1" xmlns="http://www.w3.org/2000/svg" xmlns:xlink="http://www.w3.org/1999/xlink">
    <title>Group 2</title>
    <defs>
        <rect id="path-1" x="0" y="0" width="158" height="158" rx="52"></rect>
    </defs>
    <g id="Page-1" stroke="none" stroke-width="1" fill="none" fill-rule="evenodd">
        <g id="Artboard-Copy-5" transform="translate(-89.000000, -98.000000)">
            <g id="Group-2" transform="translate(89.000000, 98.000000)">
                <path d="M218.94,68 L218.94,53.36 L228.7,53.36 C233.766667,53.36 238.166667,52.52 241.9,50.84 C245.633333,49.16 248.513333,46.7733333 250.54,43.68 C252.566667,40.5866667 253.58,36.9333333 253.58,32.72 C253.58,28.5066667 252.566667,24.84 250.54,21.72 C248.513333,18.6 245.633333,16.2 241.9,14.52 C238.166667,12.84 233.766667,12 228.7,12 L228.7,12 L203.1,12 L203.1,68 L218.94,68 Z M227.74,40.88 L218.94,40.88 L218.94,24.48 L227.74,24.48 C230.993333,24.48 233.446667,25.2 235.1,26.64 C236.753333,28.08 237.58,30.1066667 237.58,32.72 C237.58,35.3333333 236.753333,37.3466667 235.1,38.76 C233.446667,40.1733333 230.993333,40.88 227.74,40.88 L227.74,40.88 Z M307.02,68 L307.02,55.76 L277.74,55.76 L277.74,45.52 L302.62,45.52 L302.62,33.68 L277.74,33.68 L277.74,24.24 L305.98,24.24 L305.98,12 L262.06,12 L262.06,68 L307.02,68 Z M331.66,68 L331.66,53.36 L341.42,53.36 C346.486667,53.36 350.886667,52.52 354.62,50.84 C358.353333,49.16 361.233333,46.7733333 363.26,43.68 C365.286667,40.5866667 366.3,36.9333333 366.3,32.72 C366.3,28.5066667 365.286667,24.84 363.26,21.72 C361.233333,18.6 358.353333,16.2 354.62,14.52 C350.886667,12.84 346.486667,12 341.42,12 L341.42,12 L315.82,12 L315.82,68 L331.66,68 Z M340.46,40.88 L331.66,40.88 L331.66,24.48 L340.46,24.48 C343.713333,24.48 346.166667,25.2 347.82,26.64 C349.473333,28.08 350.3,30.1066667 350.3,32.72 C350.3,35.3333333 349.473333,37.3466667 347.82,38.76 C346.166667,40.1733333 343.713333,40.88 340.46,40.88 L340.46,40.88 Z M390.62,68 L390.62,53.36 L400.38,53.36 C405.446667,53.36 409.846667,52.52 413.58,50.84 C417.313333,49.16 420.193333,46.7733333 422.22,43.68 C424.246667,40.5866667 425.26,36.9333333 425.26,32.72 C425.26,28.5066667 424.246667,24.84 422.22,21.72 C420.193333,18.6 417.313333,16.2 413.58,14.52 C409.846667,12.84 405.446667,12 400.38,12 L400.38,12 L374.78,12 L374.78,68 L390.62,68 Z M399.42,40.88 L390.62,40.88 L390.62,24.48 L399.42,24.48 C402.673333,24.48 405.126667,25.2 406.78,26.64 C408.433333,28.08 409.26,30.1066667 409.26,32.72 C409.26,35.3333333 408.433333,37.3466667 406.78,38.76 C405.126667,40.1733333 402.673333,40.88 399.42,40.88 L399.42,40.88 Z M478.7,68 L478.7,55.76 L449.42,55.76 L449.42,45.52 L474.3,45.52 L474.3,33.68 L449.42,33.68 L449.42,24.24 L477.66,24.24 L477.66,12 L433.74,12 L433.74,68 L478.7,68 Z M503.34,68 L503.34,53.12 L511.98,53.12 L522.14,68 L539.1,68 L527.02,50.4 C530.54,48.6933333 533.246667,46.3333333 535.14,43.32 C537.033333,40.3066667 537.98,36.7733333 537.98,32.72 C537.98,28.5066667 536.966667,24.84 534.94,21.72 C532.913333,18.6 530.033333,16.2 526.3,14.52 C522.566667,12.84 518.166667,12 513.1,12 L513.1,12 L487.5,12 L487.5,68 L503.34,68 Z M512.14,40.88 L503.34,40.88 L503.34,24.48 L512.14,24.48 C515.393333,24.48 517.846667,25.2 519.5,26.64 C521.153333,28.08 521.98,30.1066667 521.98,32.72 C521.98,35.3333333 521.153333,37.3466667 519.5,38.76 C517.846667,40.1733333 515.393333,40.88 512.14,40.88 L512.14,40.88 Z M553.82,37.76 L558.94,26.08 C560.006667,23.6266667 560.7,21.7866667 561.02,20.56 C561.34,19.3333333 561.5,18.1066667 561.5,16.88 C561.5,14.2133333 560.646667,12.0533333 558.94,10.4 C557.233333,8.74666667 555.073333,7.92 552.46,7.92 C549.793333,7.92 547.606667,8.74666667 545.9,10.4 C544.193333,12.0533333 543.34,14.2133333 543.34,16.88 C543.34,18.6933333 543.753333,20.28 544.58,21.64 C545.406667,23 546.566667,24.0266667 548.06,24.72 L548.06,24.72 L544.3,37.76 L553.82,37.76 Z M589.02,69.12 C594.353333,69.12 598.886667,68.3066667 602.62,66.68 C606.353333,65.0533333 609.153333,62.88 611.02,60.16 C612.886667,57.44 613.82,54.4 613.82,51.04 C613.82,47.1466667 612.793333,44.0666667 610.74,41.8 C608.686667,39.5333333 606.26,37.88 603.46,36.84 C600.66,35.8 597.126667,34.8266667 592.86,33.92 C589.073333,33.12 586.326667,32.3466667 584.62,31.6 C582.913333,30.8533333 582.06,29.7333333 582.06,28.24 C582.06,26.7466667 582.78,25.5333333 584.22,24.6 C585.66,23.6666667 587.953333,23.2 591.1,23.2 C596.113333,23.2 601.286667,24.64 606.62,27.52 L606.62,27.52 L611.5,15.76 C608.78,14.16 605.633333,12.9466667 602.06,12.12 C598.486667,11.2933333 594.86,10.88 591.18,10.88 C585.793333,10.88 581.246667,11.68 577.54,13.28 C573.833333,14.88 571.046667,17.0533333 569.18,19.8 C567.313333,22.5466667 566.38,25.6266667 566.38,29.04 C566.38,32.9333333 567.393333,36.0266667 569.42,38.32 C571.446667,40.6133333 573.873333,42.28 576.7,43.32 C579.526667,44.36 583.046667,45.3333333 587.26,46.24 C591.1,47.0933333 593.886667,47.9066667 595.62,48.68 C597.353333,49.4533333 598.22,50.64 598.22,52.24 C598.22,55.28 595.18,56.8 589.1,56.8 C585.9,56.8 582.646667,56.2933333 579.34,55.28 C576.033333,54.2666667 573.126667,52.9333333 570.62,51.28 L570.62,51.28 L565.42,62.96 C568.086667,64.8266667 571.553333,66.32 575.82,67.44 C580.086667,68.56 584.486667,69.12 589.02,69.12 Z M218.94,147 L218.94,132.36 L228.7,132.36 C233.766667,132.36 238.166667,131.52 241.9,129.84 C245.633333,128.16 248.513333,125.773333 250.54,122.68 C252.566667,119.586667 253.58,115.933333 253.58,111.72 C253.58,107.506667 252.566667,103.84 250.54,100.72 C248.513333,97.6 245.633333,95.2 241.9,93.52 C238.166667,91.84 233.766667,91 228.7,91 L228.7,91 L203.1,91 L203.1,147 L218.94,147 Z M227.74,119.88 L218.94,119.88 L218.94,103.48 L227.74,103.48 C230.993333,103.48 233.446667,104.2 235.1,105.64 C236.753333,107.08 237.58,109.106667 237.58,111.72 C237.58,114.333333 236.753333,116.346667 235.1,117.76 C233.446667,119.173333 230.993333,119.88 227.74,119.88 L227.74,119.88 Z M277.9,147 L277.9,91 L262.06,91 L262.06,147 L277.9,147 Z M317.1,148.12 C322.22,148.12 326.833333,147.213333 330.94,145.4 C335.046667,143.586667 338.46,140.973333 341.18,137.56 L341.18,137.56 L331.1,128.44 C327.473333,132.813333 323.073333,135 317.9,135 C314.86,135 312.153333,134.333333 309.78,133 C307.406667,131.666667 305.566667,129.786667 304.26,127.36 C302.953333,124.933333 302.3,122.146667 302.3,119 C302.3,115.853333 302.953333,113.066667 304.26,110.64 C305.566667,108.213333 307.406667,106.333333 309.78,105 C312.153333,103.666667 314.86,103 317.9,103 C323.073333,103 327.473333,105.186667 331.1,109.56 L331.1,109.56 L341.18,100.44 C338.46,97.0266667 335.046667,94.4133333 330.94,92.6 C326.833333,90.7866667 322.22,89.88 317.1,89.88 C311.233333,89.88 305.966667,91.12 301.3,93.6 C296.633333,96.08 292.966667,99.5333333 290.3,103.96 C287.633333,108.386667 286.3,113.4 286.3,119 C286.3,124.6 287.633333,129.613333 290.3,134.04 C292.966667,138.466667 296.633333,141.92 301.3,144.4 C305.966667,146.88 311.233333,148.12 317.1,148.12 Z M363.9,147 L363.9,133 L369.82,126.68 L385.82,147 L404.22,147 L380.14,115.8 L403.02,91 L385.58,91 L363.9,114.28 L363.9,91 L348.22,91 L348.22,147 L363.9,147 Z" id="PEPPER’SPICK" fill="#5267FF" fill-rule="nonzero"></path>
                <g id="Group">
                    <mask id="mask-2" fill="white">
                        <use xlink:href="#path-1"></use>
                    </mask>
                    <use id="Rectangle" fill="#5267FF" xlink:href="#path-1"></use>
                    <path d="M83.1329338,117.950831 C99.5930101,97.9491372 107.823048,82.2205661 107.823048,70.7651179 C107.823048,54.5704456 94.6946723,41.4420698 78.5,41.4420698 C62.3053277,41.4420698 49.1769518,54.5704456 49.1769518,70.7651179 C49.1769518,82.2205668 57.406991,97.9491392 73.8670692,117.950835 L73.8670736,117.950831 C75.9727124,120.509528 79.7539034,120.876804 82.3126,118.771165 C82.6119006,118.52486 82.8866291,118.250132 83.1329338,117.950831 Z" id="Oval" fill="#FFFFFF" mask="url(#mask-2)"></path>
                </g>
            </g>
        </g>
    </g>
</svg>